<svg xmlns="http://www.w3.org/2000/svg" xmlns:xlink="http://www.w3.org/1999/xlink" viewBox="0 0 99.18 99.18">
  <defs>
    <style>
      .cls-1 {
        fill: #eaeaea;
      }

      .cls-2 {
        fill: url(#linear-gradient);
      }

      .cls-3 {
        fill: #f06127;
      }

      .cls-4 {
        fill: #c2c1c1;
      }
    </style>
    <linearGradient id="linear-gradient" x1="55.22" y1="-6192.73" x2="55.22" y2="-6117.34" gradientTransform="matrix(1, 0, 0, -1, 0, -6106.12)" gradientUnits="userSpaceOnUse">
      <stop offset="0.33" stop-color="#223f98"/>
      <stop offset="0.39" stop-color="#2a449a"/>
      <stop offset="0.49" stop-color="#3f539f"/>
      <stop offset="0.61" stop-color="#626ba6"/>
      <stop offset="0.75" stop-color="#928cb1"/>
      <stop offset="0.9" stop-color="#cfb5bf"/>
      <stop offset="1" stop-color="#fad3c9"/>
    </linearGradient>
  </defs>
  <g id="Layer_2" data-name="Layer 2">
    <g id="Layer_1-2" data-name="Layer 1">
      <g>
        <circle class="cls-1" cx="49.59" cy="49.59" r="49.59"/>
        <g>
          <path class="cls-2" d="M73.57,11.29c-1.09,1.56-2.22,3.09-3.24,4.69s-.78,1.51.44,2.48a10.17,10.17,0,0,1,3.73,6.91,82.56,82.56,0,0,0,1.77,8.52,45.55,45.55,0,0,1,1.8,11.23,12.78,12.78,0,0,1-1.55,6.44,5.47,5.47,0,0,1-7.43,2.11,5.33,5.33,0,0,1-1.45-1.18,3.52,3.52,0,0,1-.76-3.13A15.39,15.39,0,0,0,67,46a5,5,0,0,0-4.22-4.66,27,27,0,0,1-2.93-.67,7.24,7.24,0,0,1-4.81-5.28c-.12-.38-.25-.74-.36-1.09a2.23,2.23,0,0,0-2.19,2.25,2.29,2.29,0,0,0,.37,1.19,16.38,16.38,0,0,0,2.49,3.48,35.26,35.26,0,0,1,9.7,20.25,27.92,27.92,0,0,1-3.51,16.83,30,30,0,0,1-6.33,8.25,5.57,5.57,0,0,1,.42-1,16.82,16.82,0,0,0,3-10.72,31.52,31.52,0,0,0-.16-4.24,19.53,19.53,0,0,0-16.25-16,20.49,20.49,0,0,0-9.94,1c.44-3.57.62-7.21,1.33-10.74a44.83,44.83,0,0,1,13.72-24.6,34.57,34.57,0,0,1,15.07-8.19A32.55,32.55,0,0,1,73.57,11.29Z"/>
          <path class="cls-3" d="M73.57,11.29a32.65,32.65,0,0,0-11.1.8,34.6,34.6,0,0,0-15.08,8.19A44.87,44.87,0,0,0,33.7,45c-.71,3.53-.89,7.17-1.33,10.74l-6.31,3.47a22,22,0,0,1-3.46-6.06,28.34,28.34,0,0,1-.31-17.19,30.59,30.59,0,0,1,9.12-15.82A31.9,31.9,0,0,1,47,12.42c3.31-.64,6.66-.75,10.12-1.15a7.28,7.28,0,0,0,2.22-.53c3-1.33,5.84-2.76,8.88-4.15a1.24,1.24,0,0,1,.85,0L66.6,10.94l7.79-.89Z"/>
          <path class="cls-4" d="M58.72,74.91a16.83,16.83,0,0,1-3,10.73,5.57,5.57,0,0,0-.42,1c-5.1,5-11.1,7.4-18.13,5.31a16.07,16.07,0,0,1-12-13.52,16.92,16.92,0,0,1,33.38-5.54c.06.37.1.73.14,1.1S58.69,74.58,58.72,74.91ZM30,75.69A11.88,11.88,0,1,0,41.82,63.77h0A11.77,11.77,0,0,0,30,75.51Z"/>
          <path class="cls-3" d="M39.31,80.75A6.66,6.66,0,1,1,46,74.09,6.66,6.66,0,0,1,39.31,80.75Z"/>
        </g>
      </g>
    </g>
  </g>
</svg>
