<?xml version="1.0" encoding="utf-8"?>
<!-- Generator: Adobe Illustrator 24.2.3, SVG Export Plug-In . SVG Version: 6.00 Build 0)  -->
<svg version="1.1" id="Layer_1" xmlns="http://www.w3.org/2000/svg" xmlns:xlink="http://www.w3.org/1999/xlink" x="0px" y="0px"
	 viewBox="0 0 410.6 448.8" style="enable-background:new 0 0 410.6 448.8;" xml:space="preserve">
<style type="text/css">
	.st0{fill:#DBE2F2;}
	.st1{fill:#FFFFFF;}
	.st2{fill:#727272;}
	.st3{opacity:0.45;}
	.st4{fill:#000072;}
	.st5{opacity:0.3;}
	.st6{fill:#1D1D1D;}
	.st7{fill:#989A9C;}
	.st8{fill:#7F4DCE;}
	.st9{fill:#FF8888;}
	.st10{opacity:0.5;}
	.st11{fill:#F06127;}
	.st12{fill:#FDD907;}
	.st13{fill-rule:evenodd;clip-rule:evenodd;fill:#DBE2F2;}
    #clouds{animation:moving-cloud 4s infinite alternate;}
      @keyframes moving-cloud{from {transform: translateX(5px);} to{transform: translateX(-20px);}}
      #cat-with-key{animation:tilting-cat 2s infinite alternate;transform-origin: center;transform-box: fill-box;}
      @keyframes tilting-cat{from{transform: rotateZ(5deg);} to{transform: rotateZ(-5deg);}}
</style>
<g id="Layer_2_1_">
	<g id="Layer_1-2">
		<g>
			<g id="clouds">
				<path class="st0" d="M167.1,357.2c-2.2,0-4.3,0.6-6.2,1.7c-1.7-5-6.4-8.3-11.6-8.3c-0.9,0-1.7,0.1-2.6,0.3
					c-2.6-10.5-13.3-16.8-23.7-14.2c-6.9,1.7-12.3,7.1-14.2,14c-0.4,0-0.8-0.1-1.2-0.1c-2.9,0-5.7,0.8-8.2,2.2
					c-6.9-4.3-16-2.2-20.3,4.7c-1.5,2.3-2.2,5-2.2,7.8h101.8C177,360.5,172.3,357.2,167.1,357.2z"/>
				<path class="st1" d="M96.4,136.2c2.2,0,4.3,0.6,6.2,1.7c1.7-5,6.4-8.3,11.6-8.3c0.9,0,1.7,0.1,2.6,0.3
					c2.6-10.5,13.3-16.8,23.7-14.2c6.9,1.7,12.3,7.1,14.2,14c0.4,0,0.8-0.1,1.2-0.1c2.9,0,5.7,0.8,8.2,2.2c2.3-1.4,5-2.2,7.7-2.2
					c8.1,0,14.7,6.6,14.7,14.7H84.7C86.5,139.5,91.2,136.2,96.4,136.2z"/>
				<path class="st0" d="M128.7,24.2c2.5,0,5,0.7,7.1,1.9c2-5.7,7.3-9.5,13.3-9.5c1,0,2,0.1,3,0.3c3-12,15.2-19.3,27.2-16.3
					c8,2,14.2,8.1,16.3,16.1c0.4,0,0.9-0.1,1.3-0.1c3.3,0,6.5,0.9,9.4,2.5c7.9-4.9,18.3-2.4,23.2,5.5c1.6,2.7,2.5,5.7,2.5,8.9H115.3
					C117.4,28,122.7,24.3,128.7,24.2z"/>
				<path class="st1" d="M125.8,86.7H24C24,78.6,30.5,72,38.6,72c1.7,0,3.5,0.3,5.1,0.9c4.5-4,10.8-5.3,16.5-3.2
					c3.5-4.1,9.5-4.8,13.8-1.7c5.4-7.8,16.1-9.8,23.9-4.4c3.6,2.5,6.1,6.2,7.1,10.5c4.6-5,12.5-5.4,17.5-0.7
					C126.2,76.7,127.5,82,125.8,86.7L125.8,86.7z"/>
				<path class="st1" d="M310.6,448.8H208.8c0-8.1,6.6-14.7,14.7-14.7c1.7,0,3.4,0.3,5.1,0.9c4.5-4,10.8-5.3,16.5-3.2
					c3.5-4.1,9.5-4.8,13.8-1.8c5.4-7.8,16.1-9.8,23.9-4.4c3.6,2.5,6.1,6.2,7.1,10.5c4.6-5,12.5-5.4,17.5-0.7c2.6,2.4,4,5.7,4,9.1
					C311.4,445.9,311.1,447.4,310.6,448.8z"/>
			</g>
			<g id="cat-with-key">
				<path class="st2" d="M201.4,241.3c1.3,4.3,4.5,2.8,4.6,3s-0.6,0.7-0.9,1.5c-0.3,0.5-0.4,1.2-0.2,1.8c0.5,2.2,1.3,4.5,4.2,3.3
					c1.3-0.6,0.5-3.7,0.4-4.1l0,0c0,0,3-1.9,3-4.4c0-4.7-3.9-4.1-3.9-4.1l-3.4-10.4C205.1,227.9,199.6,235.5,201.4,241.3z"/>
				<g class="st3">
					<path class="st1" d="M207.9,239.1c0.3,0,3.9-0.5,3.9,4.1c0,0.7-0.2,1.4-0.6,1.9c0.7-0.8,1.1-1.7,1.2-2.8c0-4.7-3.9-4.1-3.9-4.1
						l0,0L207.9,239.1z"/>
				</g>
				<path class="st1" d="M204.8,247.6c0.5,2.2,1.3,4.5,4.2,3.3c1.3-0.6,0.5-3.7,0.4-4.1c-1.1,0.1-2.2-0.1-3.3-0.4
					c-0.4-0.1-0.7-0.3-1.1-0.6C204.8,246.4,204.7,247,204.8,247.6z"/>
				<path class="st4" d="M207.6,251.5c0.5,0,1-0.1,1.5-0.3c1.5-0.6,0.8-3.4,0.6-4.3c0.7-0.5,2.9-2.2,2.9-4.5
					c0.1-1.3-0.4-2.7-1.4-3.6c-0.8-0.6-1.9-0.9-2.9-0.8c-0.2,0-0.3,0.2-0.3,0.3l0,0c0,0.2,0.2,0.3,0.3,0.3l0,0l0,0
					c0.9-0.1,1.7,0.1,2.4,0.6c0.8,0.8,1.2,2,1.1,3.1c0,2.3-2.8,4.1-2.8,4.1l-0.2,0.1l0.1,0.2c0.3,0.9,0.8,3.4-0.2,3.8
					c-0.7,0.3-1.4,0.4-2.1,0.1c-0.9-0.5-1.4-1.9-1.7-3.2c-0.1-0.9,0.2-1.9,0.9-2.6c0.3-0.3,0.4-0.5,0.3-0.8s-0.4-0.2-0.7-0.2
					c-0.9,0.1-2.9,0.4-3.9-2.8c-1.7-5.6,3.6-13.1,3.7-13.2c0.1-0.1,0.1-0.3-0.1-0.4c-0.1-0.1-0.3-0.1-0.4,0.1l0,0
					c-1,1.4-1.9,3-2.6,4.6c-1.1,2.4-2.1,6-1.2,9.1c1.1,3.4,3.3,3.4,4.4,3.3c-0.7,0.8-1.1,1.9-0.9,3c0.3,1.4,0.8,3,2,3.6
					C206.9,251.4,207.2,251.5,207.6,251.5z"/>
				<path class="st4" d="M209.3,246.5c-0.1,0-0.2,0-0.3,0.1l-0.3,0.1c-0.2,0-0.4,0-0.7,0h-0.3h-0.3c-0.2,0-0.4-0.1-0.6-0.1l0,0
					c-0.1,0-0.1,0-0.2,0.1c0,0.1,0,0.1,0.1,0.1c0.2,0.1,0.4,0.2,0.7,0.2c0.1,0,0.2,0.1,0.3,0.1l0.4,0.1c0.2,0,0.5,0.1,0.7,0.1h0.4
					h0.4c0.2,0,0.3-0.2,0.3-0.3S209.5,246.5,209.3,246.5L209.3,246.5L209.3,246.5z"/>
				<path class="st2" d="M210.8,231.8c0,0,2.3,4.7,5.9,5.7l-3.8,2.5c0,0-3.2-1.3-4.1-2.7L210.8,231.8z"/>
				<path class="st2" d="M208.8,237.3c0.9,1.4,4.1,2.7,4.1,2.7l0.9-0.6l2.9-1.9c-3.1-0.8-5.2-4.4-5.8-5.4l-0.1-0.3L208.8,237.3z"/>
				<g class="st5">
					<path class="st4" d="M208.8,237.3c0.9,1.4,4.1,2.7,4.1,2.7l0.9-0.6c-1.5-2.2-2.5-4.7-2.9-7.3l-0.1-0.3L208.8,237.3z"/>
				</g>
				<path class="st4" d="M212.8,240.2c-0.1-0.1-3.3-1.3-4.2-2.8l-0.1-0.1l2.2-6.3l0.3,0.6c0,0,2.3,4.6,5.7,5.5l0.7,0.2L212.8,240.2
					L212.8,240.2z M210.8,232.5l-1.7,4.7c0.8,1.1,3.1,2.1,3.7,2.4l3.1-2C213.4,236.6,211.5,233.8,210.8,232.5z"/>
				<g class="st5">
					<path class="st4" d="M201.4,241.3c1.3,4.3,4.5,2.8,4.6,3s-0.6,0.7-0.9,1.5c-0.3,0.5-0.4,1.2-0.2,1.8c0.5,2.2,1.3,4.5,4.2,3.3
						c0.2-0.1,0.4-0.2,0.5-0.4c-2.3,0.6-3.1-1.5-3.5-3.5c-0.1-0.7,0.2-1,0.4-1.5c0.4-0.8,1.5-1.3,0.8-1.8s-3.3,1.3-4.6-3
						s1.3-9.6,2.8-12l-0.2-0.8C205.1,227.9,199.6,235.5,201.4,241.3z"/>
				</g>
				<path class="st2" d="M198.6,230.4l0.5,2.7l2.1,11.8l4.8-2.4l5-2.5c-0.3-1.2-0.4-2.3-0.5-3.5c0-0.9,0-1.8,0.1-2.7
					c0.2-1.4,0.4-2.8,0.8-4.1c-0.3-0.1-9.8,0.6-12.2,0.8L198.6,230.4z"/>
				<ellipse class="st1" cx="206.9" cy="236.9" rx="3.1" ry="3.8"/>
				<path class="st4" d="M198.2,230.1h0.3c4.6-0.3,12.5-0.9,12.8-0.8l0.3,0.1l-0.1,0.3c-0.6,2.2-0.9,4.5-0.8,6.7
					c0.1,1.2,0.2,2.3,0.5,3.5l0.1,0.2l-10.4,5.3L198.2,230.1z M210.1,236.4c0-2.2,0.2-4.4,0.8-6.6c-1.5,0.1-7.6,0.5-11.9,0.8
					l2.4,13.8l9.2-4.7C210.4,238.7,210.2,237.6,210.1,236.4L210.1,236.4z"/>
				<path class="st2" d="M197,243.8c0,0-7,0.1-8.3-4.6c-0.6-2.2,0.1-3.8-0.4-4.9c-0.4-0.9-1.6-1.2-2.3,0.3c-1.3,3.1-4.3,1.5-4-1.6
					s5.8-6.3,8.7-2.3c3.1,4.4-2.4,8.9,4.9,11c0.6,0.2,1.2,0.2,1.8,0.2h1.4"/>
				<g class="st3">
					<path class="st1" d="M182,233.3c0.7-3,5.9-5.7,8.6-1.8c3.1,4.4-2.4,8.9,4.9,11c0.6,0.2,1.2,0.3,1.8,0.2h0.7l0.8-0.9h-1.4
						c-0.6,0-1.2-0.1-1.8-0.2c-7.3-2.1-1.8-6.6-4.9-11c-2.8-4-8.4-0.9-8.7,2.3C182,233,182,233.2,182,233.3z"/>
				</g>
				<g class="st5">
					<path class="st4" d="M186,234.5c0.6-1.5,1.9-1.3,2.3-0.3c0.4,1.1-0.3,2.7,0.4,4.9c1.3,4.7,8.3,4.6,8.3,4.6l-0.1-0.5
						c-2.2-0.2-6.6-0.7-7.7-4.5c-0.7-2.4,0.5-3.6-0.5-5.8c-0.5-1-1.8-1.3-2.5,0.3c-1.2,2.7-3.5,2.1-4.2-0.1
						C181.9,236.1,184.7,237.5,186,234.5z"/>
				</g>
				<path class="st4" d="M196.9,244.1L196.9,244.1c0.2,0,0.3-0.2,0.2-0.4c0-0.1-0.1-0.2-0.2-0.2c-0.1,0-6.8,0-8-4.4
					c-0.3-1-0.3-2-0.2-3.1c0.1-0.6,0-1.3-0.1-1.9c-0.2-0.6-0.7-1-1.3-1c-0.7,0-1.4,0.5-1.6,1.3c-0.5,1.1-1.2,1.6-2,1.4
					s-1.6-1.3-1.4-2.9s1.8-3.2,3.7-3.8c1.7-0.5,3.5,0.1,4.4,1.6c1.2,1.7,1.1,3.4,0.9,5.1c-0.2,2.4-0.4,4.8,4.1,6
					c0.6,0.2,1.3,0.3,1.9,0.3h1.4c0.2,0,0.3-0.1,0.3-0.3s-0.1-0.3-0.3-0.3l0,0h-1.4c-0.6,0-1.2-0.1-1.7-0.2c-4.1-1.2-3.9-3-3.7-5.4
					c0.1-1.7,0.3-3.6-1-5.4c-1.1-1.7-3.2-2.4-5.1-1.9c-2.2,0.6-4,2.4-4.1,4.3s0.8,3.3,1.9,3.6c0.8,0.2,2-0.1,2.7-1.8
					c0.3-0.6,0.6-0.9,1-0.9c0.3,0,0.6,0.2,0.7,0.6c0.1,0.5,0.2,1.1,0.1,1.7c-0.1,1.1,0,2.2,0.3,3.3c0.6,2,2.3,3.5,4.9,4.3
					C194.4,243.9,195.7,244.1,196.9,244.1z"/>
				<path class="st6" d="M206.8,235.3L206.8,235.3L206.8,235.3z"/>
				<polygon class="st6" points="205.3,235.3 205.3,235.3 205.3,235.3 				"/>
				<path class="st1" d="M217,229.4l0.3-0.3C217.2,229.2,217.1,229.3,217,229.4z"/>
				<path class="st1" d="M214.7,240c1,0,2.1-0.3,2.9-0.9c1.4-1.2,1.6-2.8,0.7-3.1c-1.4-0.5-3.1,1-3.4,2S215.5,239,214.7,240z"/>
				<g class="st5">
					<path class="st4" d="M214.7,240c1,0,2.1-0.3,2.9-0.9c1.3-1.1,1.5-2.6,0.9-3.1c-0.1,0.9-0.5,1.7-1.2,2.2
						c-0.6,0.5-1.4,0.8-2.2,0.8C215.1,239.5,215,239.8,214.7,240z"/>
				</g>
				<path class="st4" d="M214.7,240.3h-0.6l0.4-0.5c0.3-0.2,0.3-0.6,0.2-0.9c-0.1-0.3-0.1-0.7,0-1.1c0.4-1.1,2.3-2.7,3.8-2.1
					c0.4,0.1,0.6,0.5,0.7,0.9c0.1,1.1-0.4,2.1-1.3,2.8c-0.8,0.6-1.9,0.9-2.9,0.9L214.7,240.3z M215.2,238c-0.1,0.2-0.1,0.4,0,0.6
					c0.1,0.3,0.2,0.6,0.1,0.9c0.8,0,1.5-0.3,2.1-0.8c0.7-0.5,1.1-1.3,1.1-2.2c0-0.2-0.1-0.3-0.3-0.4c-0.2-0.1-0.3-0.1-0.5-0.1
					C216.6,236.3,215.7,237,215.2,238L215.2,238z"/>
				<path class="st1" d="M206.2,241.8c2.4,1.2,5.2,1,7.4-0.5c1-0.7,1.7-2.3-1.1-2.3c-0.7,0-1.4-0.1-2-0.3
					C209.4,240.2,207.9,241.2,206.2,241.8z"/>
				<path class="st7" d="M219,227c0,0-0.1,0.2,0.1,0.6c0.2,0,0.4-0.1,0.4-0.2c0-0.1,0-0.1,0-0.2C219.4,227.2,219.2,227.1,219,227z"
					/>
				<g class="st5">
					<path class="st4" d="M217,230.9L217,230.9L217,230.9z"/>
				</g>
				<path class="st2" d="M217,229.3c0.1-0.1,0.2-0.1,0.2-0.2L217,229.3z"/>
				<path class="st2" d="M193.3,228.3c0.1,0.1,0.2,0.3,0.4,0.4L193.3,228.3z"/>
				<g class="st5">
					<path class="st4" d="M217,229.3c0.1-0.1,0.2-0.1,0.2-0.2L217,229.3z"/>
				</g>
				<g class="st5">
					<path class="st4" d="M193.3,228.3c0.1,0.1,0.2,0.3,0.4,0.4L193.3,228.3z"/>
				</g>
				<g class="st5">
					<path class="st4" d="M217.5,227.7l-0.2,0.2L217.5,227.7z"/>
				</g>
				<g class="st5">
					<path class="st4" d="M217.3,228L217.3,228L217.3,228z"/>
				</g>
				<g class="st5">
					<path class="st4" d="M193.9,227.3l-0.4-0.4C193.7,227,193.8,227.1,193.9,227.3z"/>
				</g>
				<g class="st5">
					<path class="st4" d="M193.5,226.9L193.5,226.9L193.5,226.9z"/>
				</g>
				<path class="st4" d="M203.1,248.2L203.1,248.2H203h-0.1l-0.3,0.1c-0.2,0-0.4,0-0.6,0c-0.2,0-0.4,0-0.6-0.1
					c-0.2,0-0.4-0.1-0.6-0.2l0,0c-0.1,0-0.1,0-0.2,0.1c0,0.1,0,0.1,0.1,0.2c0.2,0.1,0.4,0.2,0.6,0.3c0.2,0.1,0.4,0.1,0.6,0.2
					c0.2,0,0.4,0.1,0.7,0.1h0.4h0.2h0.1h0.1l0,0c0.2,0,0.3-0.2,0.3-0.3c0-0.2-0.2-0.3-0.3-0.3C203.1,248.1,203.1,248.1,203.1,248.2
					L203.1,248.2z"/>
				<path class="st8" d="M196.5,218.4c-3-0.9-5.4-3-6.8-5.8c-0.5-1-0.7-2-0.6-3.1c0.3-1.3,1.5-1.6,3.2-1.4s6.9,1.8,8.3,3.3
					S196.5,218.4,196.5,218.4z"/>
				<path class="st4" d="M196.4,218.7c-3.1-0.9-5.6-3.1-6.9-6c-0.5-1-0.7-2.2-0.6-3.3c0.3-1.3,1.5-1.9,3.6-1.6
					c1.8,0.2,7.1,1.8,8.4,3.4c0.7,0.8,0.2,2.2-1.5,4.5c-0.8,1-1.7,2-2.6,3l-0.1,0.1L196.4,218.7z M189.4,209.5c-0.1,1,0.2,2,0.6,2.9
					l0,0c1.3,2.6,3.6,4.7,6.4,5.6c2.1-2.2,4.7-5.6,4-6.5c-1.2-1.4-6.3-2.9-8.1-3.2c-0.3,0-0.6-0.1-0.9-0.1
					C189.7,208.4,189.5,209.2,189.4,209.5L189.4,209.5z"/>
				<path class="st2" d="M210,212.6c1.4-0.6,7.5-3.3,8.6-2.4c1.8,1.6-0.7,6.6-1.3,7.7L210,212.6z"/>
				<g class="st3">
					<path class="st1" d="M219.2,211.9c-0.1-0.4-0.3-0.7-0.6-1c-0.9-0.8-6.1,1.3-8.1,2.1l-0.6-0.4c1.4-0.6,7.5-3.3,8.6-2.4
						C219,210.7,219.3,211.3,219.2,211.9z"/>
				</g>
				<path class="st4" d="M217.3,218.3c0.1,0,0.2-0.1,0.3-0.2c0.8-1.5,3.2-6.4,1.3-8.1c-0.3-0.3-1.2-0.6-4.5,0.6
					c-1.9,0.6-3.9,1.5-4.4,1.8c-0.2,0.1-0.2,0.2-0.2,0.4l0,0c0.1,0.2,0.2,0.2,0.4,0.2l0,0c4.2-1.9,7.7-2.9,8.2-2.4
					c1.3,1.1,0.1,4.7-1.4,7.4c-0.1,0.1,0,0.3,0.1,0.4l0,0C217.2,218.3,217.2,218.3,217.3,218.3z"/>
				<path class="st9" d="M217.9,213.4c-0.3,1.1-0.8,2.1-1.4,3c-0.1,0.1-0.2,0.1-0.3,0.1c0,0-0.1,0-0.1-0.1c-0.3-0.4-0.5-0.8-0.8-1.1
					c-0.5-0.7-1.1-1.2-1.8-1.8c-0.1-0.1-0.1-0.3,0-0.4l0,0c0.9-0.6,1.8-1.1,2.8-1.4c0.4-0.1,0.7-0.3,1.1-0.4
					c0.3-0.1,0.5,0.1,0.6,0.3l0,0C218.1,212.3,218.1,212.9,217.9,213.4z"/>
				<g class="st5">
					<path class="st4" d="M216.1,213.2c-0.2,0.7-0.5,1.4-0.9,2.1c-0.5-0.7-1.1-1.2-1.8-1.8c-0.1-0.1-0.1-0.3,0-0.4l0,0
						c0.9-0.6,1.8-1.1,2.8-1.4C216.3,212.2,216.3,212.7,216.1,213.2z"/>
				</g>
				<path class="st4" d="M216.3,216.3L216.3,216.3L216.3,216.3L216.3,216.3l0.1-0.1l0.1-0.2c0.2-0.3,0.3-0.5,0.5-0.8
					c0.3-0.5,0.5-1.1,0.6-1.7c0.1-0.3,0.1-0.6,0.1-0.9c0-0.1,0-0.3,0-0.4c0-0.1,0-0.1,0-0.2v-0.1v-0.1c0-0.1-0.1-0.1-0.1-0.1h-0.1
					h-0.1h-0.1l-0.9,0.3c-0.6,0.2-1.1,0.4-1.7,0.7c-0.3,0.1-0.5,0.3-0.8,0.5l-0.2,0.1l-0.1,0.1l0,0l0,0c0.5,0.4,0.9,0.9,1.4,1.4
					c0.4,0.5,0.8,1,1.1,1.5v0.1C216.2,216.3,216.2,216.3,216.3,216.3L216.3,216.3z M214.7,215c-0.4-0.5-0.9-0.9-1.3-1.3l0,0l0,0
					l-0.1-0.1c0-0.1-0.1-0.1-0.1-0.2c0-0.1,0-0.3,0.1-0.4l0.1-0.1l0,0l0,0l0,0l0.1-0.1l0.2-0.1c0.3-0.2,0.6-0.4,0.8-0.5
					s0.6-0.3,0.9-0.4s0.6-0.2,0.9-0.4s0.6-0.2,0.9-0.3h0.1h0.1h0.1c0.1,0,0.3,0,0.4,0c0.2,0.1,0.4,0.3,0.5,0.5v0.1c0,0,0,0,0,0.1
					v0.1c0,0.1,0,0.2,0,0.3c0,0.2,0,0.3,0,0.5c-0.1,0.3-0.1,0.6-0.2,0.9c-0.2,0.6-0.5,1.2-0.8,1.8c-0.1,0.3-0.3,0.6-0.5,0.8
					l-0.1,0.2l-0.1,0.1v0.1l0,0l0,0c-0.1,0.1-0.2,0.2-0.4,0.1c-0.1,0-0.3-0.1-0.3-0.2C215.6,216,215.2,215.5,214.7,215z"/>
				<path class="st1" d="M192.9,223.1l0.2-0.6C193.1,222.6,193,222.7,192.9,223.1z"/>
				<path class="st2" d="M190.4,225.9c0.1,0.5,1.3,0.1,1.6,0l0,0c-0.1,0.2-0.2,0.4-0.3,0.6c-0.2,0.4-0.4,0.7-0.3,0.9s0.5,0.3,1,0.3
					c0.3,0,0.7,0.2,0.9,0.5l0,0c0.1,0.1,0.3,0.3,0.4,0.4l0,0c0.5,0.5,1,0.9,1.5,1.3c0.7,0.5,1.6,0.9,2.4,1.2
					c2.4,0.6,4.9,1.1,7.3,1.3c0.9,0.1,1.8,0.1,2.8,0c1.5-0.1,2.9-0.3,4.4-0.7c1.8-0.4,3.5-1.3,4.9-2.5l0,0l0.3-0.2l0,0
					c0.3-0.3,0.7-0.4,1.1-0.3c0.5,0.1,1,0.1,1.1-0.2s-0.1-0.5-0.2-0.9c-0.1-0.2-0.1-0.4-0.1-0.6l0,0c0.3,0.1,1.5,0.7,1.6,0.2
					c0-0.3-0.5-1.2-0.6-2.1c-0.4-2.5-0.7-3.7-0.7-3.9l0,0c-0.1-0.3-0.2-0.6-0.3-0.9l-0.1-0.4c-0.4-0.9-0.8-1.8-1.3-2.6
					c-1.5-2.2-3.5-3.9-5.8-5c-0.4-0.2-0.7-0.3-1.1-0.5c-1.2-0.5-2.5-0.8-3.8-0.9l0,0c-0.4,0-0.8,0-1.1,0c-1.7,0-3.4,0.3-5.1,0.8
					l-0.2,0.1c-1.4-0.5-7.7-2.8-8.7-1.8c-0.1,0.1-0.2,0.2-0.2,0.3c-1.2,1.9,1.4,6.3,2,7.4c-0.6,1-1.1,2.1-1.5,3.3
					c0,0-0.2,0.5-0.8,3.1C190.9,224.7,190.4,225.6,190.4,225.9z"/>
				<g class="st5">
					<path class="st4" d="M191.7,226.5c-0.2,0.4-0.4,0.7-0.3,0.9s0.5,0.3,1,0.3c0.3,0,0.7,0.2,0.9,0.5l0,0c0.1,0.1,0.3,0.3,0.4,0.4
						l0,0c0.5,0.5,1,0.9,1.5,1.3c0.7,0.5,1.6,0.9,2.4,1.2c2.4,0.6,4.9,1.1,7.3,1.3c0.9,0.1,1.8,0.1,2.8,0c1.5-0.1,2.9-0.3,4.4-0.7
						c1.8-0.4,3.5-1.3,4.9-2.5l0,0l0.3-0.2l0,0c0.3-0.3,0.7-0.4,1.1-0.3c0.5,0.1,1,0.1,1.1-0.2s-0.1-0.5-0.2-0.9
						c0-0.1-0.1-0.1-0.1-0.2c-0.2,0-0.3,0-0.5,0c-0.4-0.1-0.8,0.1-1.1,0.3c-0.1,0.1-0.2,0.2-0.3,0.3l0,0c-1.4,1.2-3.2,2.1-5,2.5
						c-1.4,0.4-2.9,0.6-4.4,0.7c-0.9,0.1-1.8,0.1-2.8,0c-2.5-0.2-4.9-0.6-7.3-1.3c-0.8-0.3-1.7-0.7-2.4-1.2
						c-0.6-0.4-1.1-0.8-1.5-1.3l0,0c-0.1-0.1-0.2-0.3-0.4-0.4c-0.2-0.3-0.5-0.5-0.9-0.5C192.3,226.5,192,226.5,191.7,226.5
						L191.7,226.5z"/>
				</g>
				<path class="st9" d="M193.3,213.4c0.3,1.1,0.8,2,1.5,2.9c0.1,0.1,0.2,0.1,0.4,0.1c0,0,0.1,0,0.1-0.1c0.2-0.4,0.5-0.7,0.7-1.1
					c0.5-0.7,1.1-1.3,1.7-1.8c0.1-0.1,0.1-0.3,0-0.4l0,0c-0.9-0.6-1.8-1.1-2.9-1.4c-0.5-0.2-0.9-0.3-1.1-0.3
					c-0.3-0.1-0.5,0.1-0.6,0.4l0,0C193,212.2,193.1,212.8,193.3,213.4z"/>
				<path class="st4" d="M194.5,216.5c-0.7-0.9-1.2-1.9-1.6-3l0,0c-0.2-0.6-0.3-1.3-0.2-1.9c0-0.2,0.2-0.4,0.4-0.5s0.4-0.1,0.6-0.1
					c0.4,0.1,0.8,0.2,1.2,0.3c1,0.3,2,0.8,2.9,1.4c0.1,0.1,0.2,0.3,0.2,0.4c0,0.2-0.1,0.4-0.2,0.5c-0.6,0.5-1.2,1.1-1.7,1.8
					c-0.3,0.3-0.5,0.7-0.7,1.1c-0.1,0.2-0.3,0.3-0.5,0.3l0,0C194.8,216.7,194.6,216.6,194.5,216.5z M194.7,211.8
					c-0.4-0.1-0.7-0.2-1.1-0.3h-0.1l-0.1,0.1c-0.1,0.5,0,1.1,0.2,1.6l0,0c0.3,1,0.8,1.9,1.4,2.8c0.2-0.4,0.5-0.7,0.7-1.1
					c0.5-0.7,1.1-1.3,1.7-1.8C196.6,212.6,195.7,212.1,194.7,211.8z"/>
				<g class="st5">
					<path class="st4" d="M195,213.1c0.2,0.7,0.5,1.4,0.9,2c0.5-0.7,1.1-1.3,1.7-1.8c0.1-0.1,0.1-0.3,0-0.4l0,0
						c-0.9-0.6-1.8-1.1-2.9-1.4C194.8,212.1,194.8,212.6,195,213.1z"/>
				</g>
				
					<ellipse transform="matrix(4.362149e-02 -0.999 0.999 4.362149e-02 -28.2417 424.9331)" class="st1" cx="207.8" cy="227.2" rx="2.1" ry="3.1"/>
				<path class="st1" d="M209.3,226.7c-0.1,0.3-0.4,0.5-0.8,0.6c-0.5,0.1-0.8-0.5-0.8-0.6s0,0-0.1,0s-0.4,0.7-0.9,0.6
					c-0.3-0.1-0.6-0.4-0.7-0.7"/>
				<path class="st1" d="M201.1,219.4c-0.1-0.2,1.1-2.5,2.7-1.9c0.6,0.2,0.5,0.8,0.1,0.9s-0.9,0.1-1.3,0.3
					C201.7,219,201.2,219.6,201.1,219.4z"/>
				<path class="st1" d="M213.8,219.9c0.1-0.2-0.8-2.6-2.6-2.1c-0.6,0.2-0.6,0.7-0.2,0.9s0.9,0.2,1.3,0.4
					C213.1,219.5,213.6,220.1,213.8,219.9z"/>
				<path class="st4" d="M201.1,224.6c0.3-0.3,0.5-0.6,0.8-0.9c0.3-0.2,0.6-0.4,0.9-0.4c0.1,0,0.2,0,0.3,0h0.1h0.1
					c0.2,0,0.3,0.1,0.4,0.2c0.1,0.1,0.2,0.3,0.3,0.4c0.1,0.2,0.2,0.4,0.2,0.6l0,0c0,0.1,0.1,0.1,0.1,0.1l0,0c0,0,0.1,0,0.1-0.1
					s0-0.2,0-0.4c0-0.1,0-0.2,0-0.4c-0.1-0.5-0.5-0.9-0.9-1.1l-0.2-0.1h-0.2c-0.1,0-0.3,0-0.4,0c-0.3,0-0.5,0.1-0.8,0.2
					c-0.2,0.1-0.4,0.3-0.6,0.4c-0.2,0.2-0.3,0.4-0.4,0.6c-0.1,0.2-0.2,0.4-0.2,0.6c0,0.1,0,0.1,0.1,0.1
					C201,224.6,201,224.6,201.1,224.6L201.1,224.6L201.1,224.6z"/>
				<path class="st4" d="M214.1,225c-0.1-0.5-0.2-0.9-0.5-1.3c-0.1-0.2-0.3-0.4-0.5-0.5s-0.5-0.2-0.7-0.3c-0.1,0-0.3,0-0.4,0
					c-0.1,0-0.1,0-0.2,0h-0.2c-0.2,0.1-0.5,0.2-0.6,0.4c-0.2,0.2-0.3,0.4-0.4,0.6c0,0.1-0.1,0.2-0.1,0.3s0,0.2,0,0.4
					c0,0.1,0.1,0.1,0.1,0.1l0,0c0,0,0.1,0,0.1-0.1l0,0c0.1-0.2,0.1-0.4,0.2-0.5c0.1-0.2,0.2-0.3,0.4-0.4c0.1-0.1,0.3-0.2,0.4-0.2
					h0.1h0.1c0.1,0,0.2,0,0.3,0c0.3,0.1,0.7,0.2,0.9,0.5c0.3,0.3,0.5,0.6,0.8,0.9l0,0C213.9,225.1,214,225.1,214.1,225
					C214,225,214,225,214.1,225L214.1,225z"/>
				<path class="st1" d="M205.8,226.5c0.1,0.4,0.5,0.7,0.9,0.9c0.6,0.1,1-0.6,1.1-0.8s0,0,0.1,0s0.4,0.9,1.1,0.8
					c0.4-0.1,0.8-0.4,1-0.8V226l-4.2-0.2L205.8,226.5z"/>
				<path class="st4" d="M209.7,226.7L209.7,226.7L209.7,226.7L209.7,226.7L209.7,226.7L209.7,226.7l-0.1,0.2l-0.2,0.2
					c-0.1,0-0.2,0.1-0.2,0.1H209h-0.1c-0.1,0-0.1,0-0.2-0.1c-0.1,0-0.1-0.1-0.2-0.2c-0.1-0.1-0.1-0.1-0.2-0.2l-0.1-0.1v-0.1l0,0l0,0
					l-0.1-0.1c-0.1,0-0.1-0.1-0.2-0.1c-0.1,0-0.1,0-0.2,0.1c0,0-0.1,0-0.1,0.1l0,0l0,0v0.1l-0.1,0.1c-0.1,0.1-0.1,0.2-0.2,0.2
					c-0.1,0.1-0.1,0.1-0.2,0.1c-0.1,0-0.1,0-0.2,0h-0.1h-0.1c-0.1,0-0.2-0.1-0.2-0.1c-0.1-0.1-0.1-0.1-0.2-0.2l-0.1-0.1v-0.1l0,0
					l0,0v0.1c0-0.1-0.1-0.2-0.2-0.2l0,0c-0.1,0-0.2,0.1-0.2,0.2l0,0l0,0l0,0l0,0v0.1v0.1c0,0.1,0,0.1,0.1,0.2
					c0.1,0.1,0.2,0.2,0.3,0.3s0.2,0.2,0.3,0.3c0.1,0,0.1,0.1,0.2,0.1h0.1h0.1c0.2,0,0.3,0,0.5-0.1c0.1-0.1,0.3-0.1,0.4-0.2
					c0.1-0.1,0.2-0.2,0.3-0.3c0,0,0.1-0.1,0.1-0.2l0.1-0.1l0,0l0,0l-0.1,0.1c-0.1,0-0.1,0-0.2,0c-0.1,0-0.1,0-0.2-0.1
					c0,0,0,0-0.1-0.1l0,0l0,0v0.1l0.1,0.2c0.1,0.1,0.2,0.2,0.3,0.3s0.2,0.2,0.4,0.3c0.1,0.1,0.3,0.1,0.5,0.1h0.1h0.1
					c0.1,0,0.1,0,0.2-0.1c0.1,0,0.3-0.1,0.4-0.2c0.1-0.1,0.2-0.2,0.3-0.3c0-0.1,0.1-0.1,0.1-0.2v-0.1l0,0v-0.1l0,0l0,0
					c0-0.1-0.1-0.2-0.2-0.2l0,0C209.8,226.5,209.7,226.6,209.7,226.7z"/>
				<path class="st4" d="M209.4,225.4c0,0.3-0.4,0.5-0.8,0.6c-0.4,0.1-0.8,0.1-1.2-0.1c-0.4-0.2-0.8-0.4-0.8-0.7
					C206.6,224.5,209.4,224.6,209.4,225.4z"/>
				<g class="st10">
					<path class="st1" d="M208.5,225.1c0,0.1-0.1,0.1-0.3,0.1c-0.1,0-0.3,0-0.4,0c-0.1,0-0.2-0.1-0.2-0.2S208.5,224.9,208.5,225.1z"
						/>
				</g>
				<g class="st5">
					<path class="st4" d="M191.5,210c0.6,0,1.1,0.2,1.6,0.4c1.3,0.4,3.6,1.3,6.1,6c3.5,6.7,16.1,8.9,19.6,4l0.2-0.2
						c2.5-3.8,0.3-9.6-4.4-8.6l-2.8,0.6c-4.2,0.9-7,1.1-11.2-0.6l-0.2,0.1c-1.4-0.5-7.7-2.8-8.7-1.8
						C191.6,209.8,191.6,209.9,191.5,210z"/>
				</g>
				<path class="st11" d="M193.9,209.4c1.3,0.4,3.6,1.3,6.1,6c3.5,6.7,16.1,8.9,19.6,4c2.8-3.8,0.5-9.9-4.3-8.9
					c-6.7,1.5-9.7,2.3-16-1c-4.7-2.4-12.9-3.7-8.9,3c-0.3-1-0.2-2,0.1-3C191,208.8,192.5,208.9,193.9,209.4z"/>
				<g class="st3">
					<path class="st1" d="M189.4,209.1c1.1-2,6.3-1.1,9.7,0.6c6.4,3.3,9.4,2.7,16,1.3c4.1-0.9,6.4,3.5,5.1,7.2
						c1.6-3.7-0.6-8.6-5-7.7c-6.7,1.5-9.7,2.3-16-1C195.6,207.7,189.9,206.5,189.4,209.1z"/>
				</g>
				<g class="st3">
					<path class="st1" d="M190.3,210.6c0-0.3,0.1-0.7,0.3-1c0.5-0.8,2-0.7,3.4-0.3s3.6,1.3,6.1,6c3.5,6.7,16.1,8.9,19.6,4
						c0.9-1.2,1.3-2.7,1.2-4.2c-0.1,1.2-0.5,2.3-1.2,3.2c-3.5,4.8-15.4,3.5-19.6-4c-2.6-4.6-4.9-5.3-6.2-5.6
						c-1.9-0.5-3.7-0.2-3.9,0.7S190.3,213.2,190.3,210.6z"/>
				</g>
				<path class="st4" d="M211.6,222.3c-4.4-0.3-9.8-2.6-12-6.8c-2.4-4.6-4.7-5.4-5.9-5.8l0,0c-1.5-0.5-2.7-0.5-3,0.1
					c-0.3,0.9-0.3,1.8-0.1,2.7l0.4,1.9l-1-1.7c-1.3-2.1-1.4-3.7-0.6-4.6c1.7-1.8,6.9-0.4,9.9,1.1c6,3.1,8.9,2.5,15.2,1.1l0.7-0.1
					c1.9-0.5,3.9,0.3,4.9,1.9c1.4,2.3,1.3,5.2-0.3,7.4c-1.3,1.8-3.8,2.8-6.9,2.8C212.5,222.3,212.1,222.3,211.6,222.3z M215.4,210.8
					l-0.7,0.1c-6.2,1.4-9.3,2.1-15.6-1.1c-3.3-1.7-7.9-2.6-9.1-1.3c-0.5,0.7-0.5,1.6-0.1,2.4c0-0.5,0.1-1,0.3-1.5
					c0.5-0.9,1.9-1,3.7-0.4l0,0c1.2,0.4,3.8,1.3,6.3,6.1c2.1,4,7.3,6.1,11.5,6.4c3.5,0.3,6.3-0.6,7.7-2.4c1.4-2,1.5-4.6,0.3-6.7
					c-0.7-1.1-1.9-1.8-3.3-1.8C216,210.7,215.7,210.8,215.4,210.8L215.4,210.8z"/>
				<path class="st11" d="M195.4,206.2c2.1,1.4,4.2-0.2,4.9,0.9c0.1,0.3,0.1,0.7,0,1c-0.2,0.5-0.5,1.1-0.8,1.5c0,0,2.4,2.9,7.8,3.7
					c3.5,0.6,4.3-1.1,4.3-1.1s-0.1-0.6-0.3-1.6c-0.6-2.6-2.2-7.6-6.5-8.6c-4.4-1-5.5,1.5-8.1,1.3c-1.8-0.1-2.1-1.1-2.7-1.1
					C193.3,202.3,193.9,205.2,195.4,206.2z"/>
				<path class="st12" d="M199.5,209.6c0,0,2.4,2.9,7.8,3.7c3.5,0.6,4.3-1.1,4.3-1.1s-0.1-0.6-0.3-1.6c-1.7,0.8-3.6,0.8-5.4,0.2
					c-2-0.6-3.9-1.6-5.7-2.7C200.1,208.6,199.9,209.2,199.5,209.6z"/>
				<g class="st3">
					<path class="st1" d="M194,202.2c0.5,0.4,1.2,1.8,2.7,1.9c2.6,0.2,3.7-2.3,8.1-1.3c4.9,1.1,6.4,7.5,6.7,9.6
						c0.1-0.1,0.1-0.1,0.1-0.2c0,0-0.9-8.9-6.8-10.2c-4.4-1-5.5,1.5-8.1,1.3C194.9,203.2,194.6,202.2,194,202.2L194,202.2z"/>
				</g>
				<path class="st11" d="M236.8,246.4l-2.5-6.5l-1.9-5l-0.2-0.5c-0.7-1.8-2.6-2.7-4.4-2l0,0l-0.5,0.2l-2.6,1l-5.1,1.9l-6.3,2.5
					l-17.6,6.7c-5-6.2-14-7.2-20.3-2.3c-6.2,5-7.2,14-2.3,20.3s14,7.2,20.3,2.3c3.5-2.8,5.5-7.1,5.4-11.6l0.1,0.1l16.4-6.3
					c0.7-0.3,1.4,0.1,1.6,0.7l2,5.3c0.5,1.3,1.9,1.9,3.2,1.4l1.6-0.6c1.3-0.5,1.9-1.9,1.4-3.2l-2-5.3c-0.3-0.7,0.1-1.4,0.7-1.6
					l2.7-1c0.7-0.3,1.4,0.1,1.6,0.7l0,0l2,5.3c0.5,1.3,1.9,1.9,3.2,1.4l0,0l1.6-0.6C236.6,249.2,237.3,247.8,236.8,246.4
					C236.8,246.5,236.8,246.4,236.8,246.4z M184.1,258.8c-2.9,0-5.2-2.3-5.2-5.2s2.3-5.2,5.2-5.2s5.2,2.3,5.2,5.2l0,0
					C189.3,256.5,187,258.8,184.1,258.8z"/>
				<g class="st5">
					<path class="st4" d="M195.4,206.2c2.1,1.4,4.2-0.2,4.9,0.9c0.5,0.8-0.8,2.5-0.8,2.5s2.4,2.9,7.8,3.7c0.3,0,0.5,0.1,0.8,0.1
						c-1.4-0.4-2.7-1-3.9-1.7c-1.6-1-2.5-2.8-2.1-4.7c0.1-0.3,0.1-0.7-0.1-1c-0.8-1.4-3.6,0.7-6.3-1.2c-0.9-0.7-1.5-1.6-1.9-2.6
						C193.4,202.8,194.1,205.3,195.4,206.2z"/>
				</g>
				<path class="st4" d="M207.3,213.6c-5.4-0.9-7.9-3.7-8-3.8l-0.1-0.2l0.1-0.2c0.5-0.6,1-1.7,0.8-2.1s-0.6-0.3-1.4-0.2
					c-1.2,0.2-2.4,0-3.4-0.6c-1.2-1-1.9-2.5-1.8-4c0-0.3,0.3-0.5,0.5-0.5c0.3,0,0.6,0.1,0.9,0.4c0.5,0.4,1.2,0.7,1.9,0.7
					c0.9,0,1.8-0.2,2.6-0.6c1.7-0.9,3.7-1.1,5.6-0.7c2.5,0.6,4.5,2.6,5.8,5.8c0.6,1.5,1,3.1,1.2,4.7v0.1v0.1c0,0.1-0.8,1.4-3.3,1.4
					C208.2,213.8,207.7,213.7,207.3,213.6z M204.8,202.3c-1.7-0.5-3.6-0.2-5.2,0.6c-0.9,0.5-1.9,0.7-2.9,0.7c-0.8,0-1.6-0.3-2.2-0.8
					c-0.2-0.1-0.3-0.2-0.4-0.2c0,0.2,0,0.4,0,0.6c0.2,1.1,0.7,2.1,1.6,2.9c0.9,0.6,2,0.7,3,0.5c0.8-0.1,1.6-0.2,2,0.5
					s-0.3,2.1-0.6,2.6c2.1,1.9,4.7,3.1,7.4,3.4c2.8,0.4,3.8-0.6,4-0.9C211.2,211.2,210.1,203.5,204.8,202.3L204.8,202.3z"/>
				<path class="st2" d="M195.1,243c1.3,4.3,4.5,2.8,4.6,3s-0.5,0.6-0.8,1.3c-0.4,0.6-0.5,1.3-0.3,2c0.5,2.2,1.3,4.4,4.2,3.3
					c1.4-0.6,0.4-4.1,0.4-4.1l0.2-0.1c0.7-0.5,2.8-2.1,2.8-4.2c0-0.5-0.1-1.1-0.2-1.6c-0.4-1.7-2-2.8-3.7-2.5l-2.1-6.7l-1-2.9
					l-0.3-0.8c-0.7,0.9-1.2,1.9-1.8,2.9C195.7,235.3,194.1,239.5,195.1,243z"/>
				<g class="st3">
					<path class="st1" d="M205.4,244.5c-0.3,1.5-1.1,2.9-2.3,3.9h0.1l0.1-0.1c0.7-0.5,2.8-2.1,2.8-4.2c0-0.5-0.1-1.1-0.2-1.6
						c-0.3-1.3-1.4-2.3-2.7-2.5c-2.6-0.4,0.3,0.6,1.4,1.7C205.3,242.5,205.6,243.5,205.4,244.5z"/>
				</g>
				<path class="st1" d="M198.6,249.3c0.5,2.2,1.3,4.4,4.2,3.3c1.4-0.6,0.4-4.1,0.4-4.1l0.2-0.1c-1.2,0.1-2.3,0-3.4-0.3
					c-0.4-0.1-0.8-0.3-1-0.7C198.6,248,198.5,248.7,198.6,249.3z"/>
				<path class="st4" d="M201.4,253.2c0.5,0,1-0.1,1.5-0.3c1.5-0.6,0.8-3.4,0.6-4.3c0.7-0.5,2.9-2.2,2.9-4.5
					c0.1-1.3-0.4-2.7-1.4-3.6c-0.8-0.6-1.9-0.9-2.9-0.8c-0.2,0-0.3,0.2-0.3,0.4s0.2,0.3,0.4,0.3l0,0c0.9-0.1,1.7,0.1,2.4,0.6
					c0.8,0.8,1.2,2,1.1,3.1c0,2.3-2.8,4.1-2.8,4.1l-0.2,0.1l0.1,0.2c0.3,0.9,0.8,3.4-0.2,3.8c-0.7,0.4-1.4,0.4-2.1,0.1
					c-0.9-0.5-1.4-1.9-1.7-3.2c-0.1-0.9,0.2-1.9,0.9-2.6c0.3-0.3,0.4-0.5,0.3-0.8s-0.4-0.2-0.7-0.2c-0.9,0.1-2.9,0.4-3.9-2.8
					c-1.7-5.6,3.6-13.1,3.7-13.2c0.1-0.1,0.1-0.3-0.1-0.4c-0.1-0.1-0.3-0.1-0.4,0.1c-1,1.5-1.9,3-2.6,4.6c-1.1,2.5-2.1,6-1.2,9.1
					c1.1,3.4,3.3,3.4,4.4,3.3c-0.7,0.8-1.1,1.9-0.9,3c0.3,1.4,0.8,3,2,3.6C200.6,253.1,201,253.2,201.4,253.2z"/>
				<g class="st5">
					<path class="st4" d="M195.1,243c1.3,4.3,4.5,2.8,4.6,3s-0.5,0.6-0.8,1.3c-0.4,0.6-0.5,1.3-0.3,2c0.5,2.2,1.3,4.4,4.2,3.3
						c0.3-0.2,0.6-0.5,0.6-0.8c-2.6,0.9-3.4-1.3-3.9-3.4c-0.2-0.8,0.3-1.1,0.5-1.7c0.4-0.7,1.3-1.2,0.6-1.6c-0.9-0.5-3.3,1.3-4.6-3
						c-0.5-2.2-0.4-4.5,0.4-6.6c0.5-1.5,2-2.4,3.6-2.1l0,0c1.6,0.3,3.2,0.6,4.9,0.7c0.9,0.1,1.8,0.1,2.8,0c0.9,0,1.9-0.2,2.8-0.3
						c0.2-1.4,0.4-2.8,0.8-4.1c-0.3-0.1-9.8,0.6-12.2,0.8L199,230l-0.1-0.4c-0.7,0.9-1.2,1.9-1.8,2.9
						C195.7,235.3,194.1,239.5,195.1,243z"/>
				</g>
				<path class="st2" d="M201.6,237.7c1.1,1.8,2.7,3.2,4.6,4.1c2.4,1.2,5.2,1,7.4-0.5c1-0.7,1.7-2.3-1.1-2.3c-0.7,0-1.4-0.1-2-0.3
					c-3.5-1.1-6.3-4.8-6.3-4.8L201.6,237.7z"/>
				<g class="st5">
					<path class="st4" d="M201.6,237.7c1.1,1.8,2.7,3.2,4.6,4.1c2.4,1.2,5.2,1,7.4-0.5c0.6-0.4,1.1-1.1,0.8-1.6
						c-0.1,0.1-0.3,0.5-0.4,0.6c-3.9,2.5-5.7,1.6-7.7,0.4c-1.2-0.8-2.3-1.8-3.1-3.1c-0.4-0.4-1-0.4-1.4-0.1
						C201.7,237.6,201.7,237.6,201.6,237.7L201.6,237.7z"/>
				</g>
				<path class="st4" d="M204.1,234.1c0.1,0.3,0.3,0.5,0.4,0.8c0.2,0.2,0.4,0.5,0.6,0.7c0.4,0.4,0.8,0.8,1.3,1.2
					c0.9,0.8,1.9,1.4,3,1.9c0.6,0.3,1.1,0.4,1.7,0.6c0.1,0,0.3,0.1,0.5,0.1s0.3,0,0.5,0h0.4h0.4c0.3,0,0.5,0.1,0.8,0.1
					c0.1,0,0.2,0.1,0.3,0.2c0.1,0.1,0.1,0.1,0.1,0.2c0,0.2,0,0.4-0.2,0.6c-0.1,0.2-0.3,0.4-0.5,0.5c-0.5,0.3-1,0.6-1.5,0.8
					s-1.1,0.3-1.6,0.4c-1.1,0.1-2.3,0-3.3-0.4c-1.1-0.4-2-1-2.9-1.7l-0.3-0.3c-0.1-0.1-0.2-0.2-0.3-0.3l-0.3-0.3l-0.3-0.3
					c-0.1-0.1-0.2-0.2-0.3-0.3l-0.1-0.2l-0.1-0.2c-0.2-0.2-0.4-0.4-0.6-0.6l0,0h-0.1v0.1c0.1,0.3,0.2,0.6,0.3,0.9
					c0.2,0.3,0.3,0.5,0.5,0.7c0.1,0.1,0.2,0.2,0.3,0.3l0.3,0.3l0.3,0.3l0.3,0.3c0.9,0.8,2,1.4,3.1,1.8c1.7,0.7,3.6,0.7,5.4,0
					c0.6-0.2,1.1-0.5,1.6-0.8c0.3-0.2,0.5-0.4,0.7-0.7c0.1-0.1,0.2-0.3,0.2-0.5c0.1-0.2,0.1-0.4,0-0.6c0-0.2-0.1-0.4-0.3-0.5
					c-0.1-0.1-0.3-0.2-0.4-0.2c-0.3-0.1-0.7-0.2-1-0.2h-0.5h-0.4c-0.1,0-0.3,0-0.4,0l-0.4-0.1c-0.6-0.1-1.1-0.3-1.6-0.5
					s-1-0.5-1.5-0.8s-0.9-0.6-1.4-1c-0.4-0.4-0.9-0.8-1.3-1.2C205.1,234.8,204.6,234.4,204.1,234.1L204.1,234.1
					C204.2,234,204.1,234,204.1,234.1L204.1,234.1z"/>
			</g>
			<g>
				<path class="st13" d="M240.7,175c-0.4,7.7,12.7,8.4,11.6,0c-0.6-3.3,1.6-25.4-1.7-27.4C235.7,137.8,241.9,169.1,240.7,175
					L240.7,175z M258.9,185c-0.3,6.3,11.9,6.3,11.6,0v-54.2c0.2-7.6-11.8-7.6-11.6,0V185z M277,187.5c-0.2,6.3,11.9,6.3,11.7,0
					v-49.4c0.2-7.8-11.9-7.8-11.7,0V187.5z M295.2,187.8c-0.8,5.9,12.5,5.9,11.7,0v-80.2c0.3-6.9-4.4-9.9-9.2-6.1
					C292.5,100.5,296.2,185.1,295.2,187.8L295.2,187.8z M313.7,190.1c1.2-2.4-2.7-93.8,2.5-92.2c27.2-7.2,55.8,14.4,57.4,42.2
					c26.1-12,50.1,24.6,29.2,44.1c-4.9,5.1-11.7,8-18.9,7.9C382.3,190.9,312.6,194.9,313.7,190.1L313.7,190.1z"/>
				<path d="M322.9,238.6l-2-7.5l-0.3-1l-0.9-3.3c2.9-2.7,3.1-7.3,0.4-10.3c-1-1.1-2.3-1.8-3.8-2.2c-0.5-0.1-1-0.2-1.5-0.2
					c-4,0-7.3,3.2-7.3,7.2c0,2,0.8,4,2.3,5.4l-3.1,11.8L322.9,238.6z M339.6,201.7h-4.1v-9.6h-8.2v9.5h-24.7v-12.3
					c0-6.8,5.5-12.3,12.3-12.3l0,0c0.5,0,1,0,1.5,0.1v-8.3c-0.5,0-1-0.1-1.5-0.1c-11.4,0-20.6,9.2-20.6,20.6l0,0v12.3h-4.1
					c-4.4,0-8.2,3.2-8.2,7.5v34.3c0,4.4,3.8,7.5,8.2,7.5h49.4c4.4,0,8.2-3.2,8.2-7.5v-34.3C347.8,204.9,344,201.7,339.6,201.7z
					 M339.6,242.9h-49.4V210h49.4V242.9z"/>
			</g>
		</g>
	</g>
</g>
</svg>
