<svg xmlns="http://www.w3.org/2000/svg" viewBox="0 0 112.6 8.85">
  <defs>
    <style>
      .cls-1 {
        fill: #ccc;
      }

      .cls-2 {
        fill: #a89d9d;
      }
    </style>
  </defs>
  <g id="Layer_2" data-name="Layer 2">
    <g id="Layer_1-2" data-name="Layer 1">
      <g>
        <g>
          <rect class="cls-1" x="65.02" y="3.94" width="47.58" height="0.63"/>
          <rect class="cls-1" y="3.94" width="47.58" height="0.63"/>
        </g>
        <g>
          <path class="cls-2" d="M53.38,0A4.16,4.16,0,0,1,56.6,1.41a4.35,4.35,0,0,1,1.16,3,4.42,4.42,0,0,1-1.22,3.08,4.45,4.45,0,0,1-6.33,0A4.42,4.42,0,0,1,49,4.45a4.32,4.32,0,0,1,1.16-3A4.15,4.15,0,0,1,53.38,0Zm0,1.06a3.11,3.11,0,0,0-2.32,1,3.35,3.35,0,0,0-1,2.41,3.35,3.35,0,0,0,.45,1.7,3.1,3.1,0,0,0,1.19,1.22,3.23,3.23,0,0,0,1.65.43A3.26,3.26,0,0,0,55,7.39a3.1,3.1,0,0,0,1.19-1.22,3.35,3.35,0,0,0,.45-1.7,3.32,3.32,0,0,0-1-2.41A3.11,3.11,0,0,0,53.37,1.06Z"/>
          <path class="cls-2" d="M59.36.22h1.1V1.45a3.79,3.79,0,0,1,1-1.09A2,2,0,0,1,62.65,0a2,2,0,0,1,1,.29l-.56.91a1.5,1.5,0,0,0-.58-.15,1.54,1.54,0,0,0-1,.45,2.75,2.75,0,0,0-.77,1.38,13.55,13.55,0,0,0-.2,2.91V8.63h-1.1Z"/>
        </g>
      </g>
    </g>
  </g>
</svg>
